<svg t="1754970581126" class="icon" viewBox="0 0 1024 1024" version="1.1"
  xmlns="http://www.w3.org/2000/svg" p-id="7100" width="48" height="48">
  <path d="M1024 512c0 282.7776-229.2224 512-512 512S0 794.7776 0 512 229.2224 0 512 0s512 229.2224 512 512z" fill="#FF6D00" p-id="7101"></path>
  <path d="M694.2848 281.6a101.2096 101.2096 0 0 1 99.328 102.784v34.432a40.32 40.32 0 0 1-29.1712 38.784 50.2272 50.2272 0 0 0 0 96 40.32 40.32 0 0 1 29.1712 38.784v50.3808A101.1968 101.1968 0 0 1 694.2848 742.4H329.728a101.1968 101.1968 0 0 1-99.3152-102.784v-47.232a40.32 40.32 0 0 1 29.1584-38.784 50.2272 50.2272 0 0 0 0-96 40.32 40.32 0 0 1-29.1584-38.784v-34.432A101.1968 101.1968 0 0 1 329.728 281.6z m-105.024 133.9392a19.2 19.2 0 0 0-27.1616 0L512 465.664l-50.0992-50.112a19.2 19.2 0 0 0-27.1616 27.1616l43.6992 43.6864L441.6 486.4a19.2 19.2 0 0 0 0 38.4h51.2v38.4h-50.9824a19.4176 19.4176 0 0 0 0 38.8352H492.8V633.6a19.2 19.2 0 0 0 38.4 0v-31.5648h50.9824a19.4176 19.4176 0 0 0 0-38.8352H531.2v-38.4h51.2a19.2 19.2 0 0 0 0-38.4h-36.8512l43.712-43.6992a19.2 19.2 0 0 0 0-27.1616z" fill="#FFFFFF" p-id="7102"></path>
</svg>