<?xml version="1.0" encoding="UTF-8"?>
<svg width="46px" height="51px" viewBox="0 0 46 51" version="1.1"
  xmlns="http://www.w3.org/2000/svg"
  xmlns:xlink="http://www.w3.org/1999/xlink">
  <title>操作手册备份</title>
  <g id="页面-1" stroke="none" stroke-width="1" fill="none" fill-rule="evenodd">
    <g id="我的1" transform="translate(-57.000000, -2132.000000)">
      <g id="操作手册备份" transform="translate(57.000000, 2132.000000)">
        <rect id="矩形" x="1.0625" y="0" width="42.5" height="51"></rect>
        <path d="M22.8816333,3.1875 C10.2047998,3.1875 0,12.2725804 0,23.4730084 C0,30.3699773 2.84474318,36.4561495 8.74391425,40.1878931 L8.74391425,47.4976852 C8.74391425,48.3084818 9.30063256,48.875 10.0207911,48.875 C10.260844,48.875 10.5008968,48.7918414 10.6592295,48.7138802 L17.9375661,43.4310797 C19.5311084,43.7533194 21.1246507,43.836478 22.7999131,43.836478 C35.4818541,43.836478 45.6866539,34.7513976 45.6866539,23.5509696 C45.7632665,12.2725804 35.4818541,3.1875 22.8816333,3.1875 Z M12.5951133,26.7993536 C11.0781836,26.7993536 9.88302686,25.5 9.88302686,24.0395266 C9.88302686,22.4958945 11.1599037,21.2796995 12.5951133,21.2796995 C14.112043,21.2796995 15.3071997,22.5790531 15.3071997,24.0395266 C15.3838124,25.5 14.112043,26.7993536 12.5951133,26.7993536 Z M23.039966,26.7993536 C21.5230363,26.7993536 20.3278795,25.5 20.3278795,24.0395266 C20.3278795,22.4958945 21.6047564,21.2796995 23.039966,21.2796995 C24.5568957,21.2796995 25.7520524,22.5790531 25.7520524,24.0395266 C25.7520524,25.5 24.4751756,26.7993536 23.039966,26.7993536 Z M33.0864331,26.7993536 C31.5695034,26.7993536 30.3743466,25.5 30.3743466,24.0395266 C30.3743466,22.4958945 31.6512235,21.2796995 33.0864331,21.2796995 C34.6033628,21.2796995 35.7985195,22.5790531 35.7985195,24.0395266 C35.7985195,25.5 34.6033628,26.7993536 33.0864331,26.7993536 Z" id="形状" fill="#ffffff" fill-rule="nonzero"></path>
      </g>
    </g>
  </g>
</svg>