<?xml version="1.0" encoding="UTF-8"?>
<svg width="32px" height="32px" viewBox="0 0 32 32" version="1.1"
  xmlns="http://www.w3.org/2000/svg"
  xmlns:xlink="http://www.w3.org/1999/xlink">
  <title>设置</title>
  <g id="小程序2.0" stroke="none" stroke-width="1" fill="none" fill-rule="evenodd">
    <g id="29-我的-登录成功备份" transform="translate(-62.000000, -1299.000000)" fill="#ffffff" fill-rule="nonzero">
      <g id="编组-4" transform="translate(29.000000, 590.000000)">
        <g id="编组-5" transform="translate(0.000000, 686.000000)">
          <g id="设置" transform="translate(33.000000, 23.000000)">
            <path d="M18.1,1.9 C18.9,5 21.8,7.3 25.3,7.3 C25.9,7.3 26.6,7.2 27.3,7 L29.5,10.7 C28.1,12 27.3,13.9 27.3,15.9 C27.3,17.9 28.1,19.7 29.5,21.1 L27.3,25 C26.7,24.8 26,24.7 25.3,24.7 C21.8,24.7 18.9,27 18.1,30.1 L13.7,30.1 C13,27 10,24.7 6.6,24.7 C6,24.7 5.3,24.8 4.6,25 L2.4,21.3 C3.8,19.9 4.6,18 4.6,16 C4.6,14 3.8,12.2 2.4,10.8 L4.6,7 C5.3,7.2 5.9,7.3 6.6,7.3 C10,7.3 13,5 13.8,1.9 L18.1,1.9 Z M19.8,0 L12.2,0 C12.2,3 9.7,5.4 6.6,5.4 C5.6,5.4 4.6,5.1 3.8,4.7 L0,11.3 C1.7,12.3 2.8,14 2.8,16 C2.8,18 1.7,19.8 0,20.7 L3.8,27.3 C4.6,26.9 5.6,26.6 6.6,26.6 C9.7,26.6 12.2,29 12.2,32 L19.8,32 C19.8,29 22.3,26.6 25.4,26.6 C26.4,26.6 27.4,26.9 28.2,27.3 L32,20.7 C30.3,19.7 29.2,18 29.2,16 C29.2,14 30.4,12.2 32,11.3 L28.2,4.7 C27.4,5.1 26.4,5.4 25.4,5.4 C22.3,5.4 19.8,3 19.8,0 Z M16,20.6 C13.4,20.6 11.3,18.6 11.3,16 C11.3,13.5 13.4,11.4 16,11.4 C18.6,11.4 20.7,13.4 20.7,16 C20.7,18.5 18.6,20.6 16,20.6 Z M16,13.2 C14.4,13.2 13.2,14.4 13.2,16 C13.2,17.6 14.4,18.8 16,18.8 C17.6,18.8 18.8,17.6 18.8,16 C18.8,14.4 17.5,13.2 16,13.2 L16,13.2 Z" id="形状"></path>
          </g>
        </g>
      </g>
    </g>
  </g>
</svg>